<svg width="13" height="17" viewBox="0 0 13 17" fill="none" xmlns="http://www.w3.org/2000/svg">
<path d="M7.21875 15.625C6.84375 16.0938 6.125 16.0938 5.75 15.625C4.15625 13.5938 0.5 8.75 0.5 6C0.5 2.6875 3.1875 0 6.5 0C9.8125 0 12.5 2.6875 12.5 6C12.5 8.75 8.84375 13.5938 7.21875 15.625ZM6.5 4C5.78125 4 5.125 4.40625 4.75 5C4.40625 5.625 4.40625 6.40625 4.75 7C5.125 7.625 5.78125 8 6.5 8C7.1875 8 7.84375 7.625 8.21875 7C8.5625 6.40625 8.5625 5.625 8.21875 5C7.84375 4.40625 7.1875 4 6.5 4Z" fill="white"/>
</svg>
